<?xml version="1.0" encoding="UTF-8" standalone="no"?>
<!-- Created with Inkscape (http://www.inkscape.org/) -->

<svg
   xmlns:dc="http://purl.org/dc/elements/1.1/"
   xmlns:cc="http://creativecommons.org/ns#"
   xmlns:rdf="http://www.w3.org/1999/02/22-rdf-syntax-ns#"
   xmlns:svg="http://www.w3.org/2000/svg"
   xmlns="http://www.w3.org/2000/svg"
   version="1.1"
   width="374.98331"
   height="260.24475"
   id="svg2">
  <defs
     id="defs4" />
  <metadata
     id="metadata7">
    <rdf:RDF>
      <cc:Work
         rdf:about="">
        <dc:format>image/svg+xml</dc:format>
        <dc:type
           rdf:resource="http://purl.org/dc/dcmitype/StillImage" />
        <dc:title></dc:title>
      </cc:Work>
    </rdf:RDF>
  </metadata>
  <g
     transform="translate(-182.51668,-442.875)"
     id="layer1">
    <g
       id="g3823"
       style="fill:#ff0000">
      <path
         d="m 310,443.375 c -5.54,0 -10,4.46 -10,10 l 0,142.28125 c 21.42229,1.21065 39.79757,13.73702 49.25,31.71875 l 88.625,0 c 9.95023,-18.92872 29.78686,-31.84375 52.65625,-31.84375 22.86939,0 42.70602,12.91503 52.65625,31.84375 l 3.8125,0 c 5.54,0 10,-4.46 10,-10 l 0,-164 c 0,-5.54 -4.46,-10 -10,-10 z"
         id="rect2985"
         style="fill:#ff0000;fill-rule:evenodd;stroke:#000000;stroke-width:1px;stroke-linecap:butt;stroke-linejoin:miter;stroke-opacity:1" />
      <path
         d="m 270.46875,505.46875 c -15.70256,0.2921 -44.03947,3.7217 -64.46875,22.6875 -29.71532,27.58662 -22.78125,75.3125 -22.78125,75.3125 -0.29921,15.4897 9.90869,24.33242 25.34375,24.4375 l 35.125,0 c 9.19329,-17.9173 27.17446,-30.53335 48.28125,-32.15625 l 0,-80.0625 c 0,-5.45064 -4.3931,-9.8125 -9.84375,-9.8125 0,0 -4.51872,-0.53902 -11.65625,-0.40625 z"
         id="rect3755"
         style="fill:#ff0000" />
      <path
         d="m 402.27272,658.80157 a 48.863636,48.863636 0 1 1 -97.72727,0 48.863636,48.863636 0 1 1 97.72727,0 z"
         transform="translate(-57.575758,-4.5454546)"
         id="path3803"
         style="fill:#ff0000" />
      <path
         d="m 402.27272,658.80157 a 48.863636,48.863636 0 1 1 -97.72727,0 48.863636,48.863636 0 1 1 97.72727,0 z"
         transform="translate(137.12121,-4.5454546)"
         id="path3805"
         style="fill:#ff0000" />
    </g>
  </g>
</svg>
