<?xml version="1.0" encoding="UTF-8" standalone="no"?>
<!-- Created with Inkscape (http://www.inkscape.org/) -->

<svg
   xmlns:dc="http://purl.org/dc/elements/1.1/"
   xmlns:cc="http://creativecommons.org/ns#"
   xmlns:rdf="http://www.w3.org/1999/02/22-rdf-syntax-ns#"
   xmlns:svg="http://www.w3.org/2000/svg"
   xmlns="http://www.w3.org/2000/svg"
   xmlns:sodipodi="http://sodipodi.sourceforge.net/DTD/sodipodi-0.dtd"
   xmlns:inkscape="http://www.inkscape.org/namespaces/inkscape"
   width="374.98331"
   height="260.24475"
   id="svg2"
   version="1.1"
   inkscape:version="0.48.2 r9819"
   sodipodi:docname="auto2.svg">
  <defs
     id="defs4" />
  <sodipodi:namedview
     id="base"
     pagecolor="#ffffff"
     bordercolor="#666666"
     borderopacity="1.0"
     inkscape:pageopacity="0.0"
     inkscape:pageshadow="2"
     inkscape:zoom="1"
     inkscape:cx="171.53007"
     inkscape:cy="108.55812"
     inkscape:document-units="px"
     inkscape:current-layer="layer1"
     showgrid="false"
     inkscape:window-width="1280"
     inkscape:window-height="684"
     inkscape:window-x="0"
     inkscape:window-y="0"
     inkscape:window-maximized="1"
     inkscape:snap-smooth-nodes="true"
     inkscape:object-paths="false"
     inkscape:snap-nodes="true"
     inkscape:snap-bbox="false"
     inkscape:snap-global="true"
     inkscape:snap-midpoints="false"
     inkscape:snap-center="false"
     fit-margin-top="0"
     fit-margin-left="0"
     fit-margin-right="0"
     fit-margin-bottom="0" />
  <metadata
     id="metadata7">
    <rdf:RDF>
      <cc:Work
         rdf:about="">
        <dc:format>image/svg+xml</dc:format>
        <dc:type
           rdf:resource="http://purl.org/dc/dcmitype/StillImage" />
        <dc:title></dc:title>
      </cc:Work>
    </rdf:RDF>
  </metadata>
  <g
     inkscape:label="Capa 1"
     inkscape:groupmode="layer"
     id="layer1"
     transform="translate(-182.51668,-442.875)">
    <g
       id="g3823">
      <path
         sodipodi:nodetypes="sscccscsssss"
         inkscape:connector-curvature="0"
         id="rect2985"
         d="m 310,443.375 c -5.54,0 -10,4.46 -10,10 l 0,142.28125 c 21.42229,1.21065 39.79757,13.73702 49.25,31.71875 l 88.625,0 c 9.95023,-18.92872 29.78686,-31.84375 52.65625,-31.84375 22.86939,0 42.70602,12.91503 52.65625,31.84375 l 3.8125,0 c 5.54,0 10,-4.46 10,-10 l 0,-164 c 0,-5.54 -4.46,-10 -10,-10 z"
         style="fill:#000000;fill-rule:evenodd;stroke:#000000;stroke-width:1px;stroke-linecap:butt;stroke-linejoin:miter;stroke-opacity:1" />
      <path
         id="rect3755"
         d="m 270.46875,505.46875 c -15.70256,0.2921 -44.03947,3.7217 -64.46875,22.6875 -29.71532,27.58662 -22.78125,75.3125 -22.78125,75.3125 -0.29921,15.4897 9.90869,24.33242 25.34375,24.4375 l 35.125,0 c 9.19329,-17.9173 27.17446,-30.53335 48.28125,-32.15625 l 0,-80.0625 c 0,-5.45064 -4.3931,-9.8125 -9.84375,-9.8125 0,0 -4.51872,-0.53902 -11.65625,-0.40625 z"
         style="fill:#000000"
         inkscape:connector-curvature="0" />
      <path
         transform="translate(-57.575758,-4.5454546)"
         d="m 402.27272,658.80157 c 0,26.98665 -21.87699,48.86364 -48.86363,48.86364 -26.98664,0 -48.86364,-21.87699 -48.86364,-48.86364 0,-26.98664 21.877,-48.86363 48.86364,-48.86363 26.98664,0 48.86363,21.87699 48.86363,48.86363 z"
         sodipodi:ry="48.863636"
         sodipodi:rx="48.863636"
         sodipodi:cy="658.80157"
         sodipodi:cx="353.40909"
         id="path3803"
         style="fill:#000000"
         sodipodi:type="arc" />
      <path
         sodipodi:type="arc"
         style="fill:#000000"
         id="path3805"
         sodipodi:cx="353.40909"
         sodipodi:cy="658.80157"
         sodipodi:rx="48.863636"
         sodipodi:ry="48.863636"
         d="m 402.27272,658.80157 c 0,26.98665 -21.87699,48.86364 -48.86363,48.86364 -26.98664,0 -48.86364,-21.87699 -48.86364,-48.86364 0,-26.98664 21.877,-48.86363 48.86364,-48.86363 26.98664,0 48.86363,21.87699 48.86363,48.86363 z"
         transform="translate(137.12121,-4.5454546)" />
    </g>
  </g>
</svg>
