<?xml version="1.0" encoding="UTF-8" standalone="no"?>
<!-- Created with Inkscape (http://www.inkscape.org/) -->

<svg
   xmlns:dc="http://purl.org/dc/elements/1.1/"
   xmlns:cc="http://creativecommons.org/ns#"
   xmlns:rdf="http://www.w3.org/1999/02/22-rdf-syntax-ns#"
   xmlns:svg="http://www.w3.org/2000/svg"
   xmlns="http://www.w3.org/2000/svg"
   xmlns:sodipodi="http://sodipodi.sourceforge.net/DTD/sodipodi-0.dtd"
   xmlns:inkscape="http://www.inkscape.org/namespaces/inkscape"
   width="386.25989"
   height="271.41751"
   id="svg2"
   version="1.1"
   inkscape:version="0.48.2 r9819"
   sodipodi:docname="moto.svg">
  <defs
     id="defs4" />
  <sodipodi:namedview
     id="base"
     pagecolor="#ffffff"
     bordercolor="#666666"
     borderopacity="1.0"
     inkscape:pageopacity="0.0"
     inkscape:pageshadow="2"
     inkscape:zoom="0.66"
     inkscape:cx="149.06869"
     inkscape:cy="94.325317"
     inkscape:document-units="px"
     inkscape:current-layer="layer1"
     showgrid="false"
     inkscape:window-width="1280"
     inkscape:window-height="686"
     inkscape:window-x="0"
     inkscape:window-y="0"
     inkscape:window-maximized="1"
     fit-margin-top="0"
     fit-margin-left="0"
     fit-margin-right="0"
     fit-margin-bottom="0" />
  <metadata
     id="metadata7">
    <rdf:RDF>
      <cc:Work
         rdf:about="">
        <dc:format>image/svg+xml</dc:format>
        <dc:type
           rdf:resource="http://purl.org/dc/dcmitype/StillImage" />
        <dc:title></dc:title>
      </cc:Work>
    </rdf:RDF>
  </metadata>
  <g
     inkscape:label="Capa 1"
     inkscape:groupmode="layer"
     id="layer1"
     transform="translate(-200.93131,-355.26999)">
    <path
       style="fill:#ff0000;stroke:#000000;stroke-width:1px;stroke-linecap:butt;stroke-linejoin:miter;stroke-opacity:1"
       d="m 390.09901,469.19387 c 0,0 -12.17628,26.0964 -15.84158,40.59406 -4.39514,17.38447 -8.9109,62.37624 -8.9109,62.37624 0,0 43.59796,-44.1858 70.29703,-60.39604 19.44907,-11.80843 111.88121,-40.59406 111.88121,-40.59406 0,0 10.07099,-6.60241 9.90098,-14.85148 -0.13204,-6.40672 -38.17589,-0.61419 -59.40595,-10e-6 -30.52042,0.88294 -107.92079,12.87129 -107.92079,12.87129 z"
       id="path2985"
       inkscape:connector-curvature="0"
       sodipodi:nodetypes="cscscssc" />
    <path
       style="fill:#ff0000;stroke:#000000;stroke-width:1px;stroke-linecap:butt;stroke-linejoin:miter;stroke-opacity:1"
       d="m 357.42574,563.25327 24.75248,-95.0495 c 0,0 -35.88153,-3.11358 -41.58415,-4.9505 C 324.4015,458.03734 300,460.28298 300,460.28298 l -16.83169,42.57426 c 0,0 22.93366,8.6555 32.67328,15.84158 16.34718,12.06127 41.58415,44.55445 41.58415,44.55445 z"
       id="path2987"
       inkscape:connector-curvature="0"
       sodipodi:nodetypes="ccsccac" />
    <path
       style="fill:#ff0000;fill-opacity:0.88934427999999999;stroke:#000000;stroke-width:0.11357594000000000;stroke-miterlimit:4;stroke-opacity:1;stroke-dasharray:none"
       d="m 470.78125,510.78125 c -31.98418,0 -57.90625,25.92207 -57.90625,57.90625 0,31.98418 25.92207,57.9375 57.90625,57.9375 31.98418,0 57.9375,-25.95332 57.9375,-57.9375 0,-31.98418 -25.95332,-57.90625 -57.9375,-57.90625 z m 0,21.75 c 19.9678,0 36.15625,16.18845 36.15625,36.15625 0,19.9678 -16.18845,36.15625 -36.15625,36.15625 -19.9678,0 -36.15625,-16.18845 -36.15625,-36.15625 0,-19.9678 16.18845,-36.15625 36.15625,-36.15625 z"
       id="path2989"
       inkscape:connector-curvature="0" />
    <path
       id="path3013"
       d="m 258.90006,510.78125 c -31.98418,0 -57.90625,25.92207 -57.90625,57.90625 0,31.98418 25.92207,57.9375 57.90625,57.9375 31.98418,0 57.9375,-25.95332 57.9375,-57.9375 0,-31.98418 -25.95332,-57.90625 -57.9375,-57.90625 z m 0,21.75 c 19.9678,0 36.15625,16.18845 36.15625,36.15625 0,19.9678 -16.18845,36.15625 -36.15625,36.15625 -19.9678,0 -36.15625,-16.18845 -36.15625,-36.15625 0,-19.9678 16.18845,-36.15625 36.15625,-36.15625 z"
       style="fill:#ff0000;fill-opacity:0.88934427999999999;stroke:#000000;stroke-width:0.11357594000000000;stroke-miterlimit:4;stroke-opacity:1;stroke-dasharray:none"
       inkscape:connector-curvature="0" />
    <rect
       style="fill:#ff0000;fill-opacity:0.88934427999999999;stroke:#000000;stroke-width:0.10000000000000001;stroke-miterlimit:4;stroke-opacity:1;stroke-dasharray:none"
       id="rect3015"
       width="121.78218"
       height="96.039604"
       x="465.34653"
       y="355.33249"
       ry="19.801981" />
    <path
       style="fill:#ff0000;stroke:#000000;stroke-width:1px;stroke-linecap:butt;stroke-linejoin:miter;stroke-opacity:1"
       d="m 264.35644,499.88693 c -1.91142,3.84113 0.74164,8.57332 4.9505,9.40594 4.12077,0.81519 8.91089,-6.43564 8.91089,-6.43564 l 44.55445,-110.89109 42.57426,0 c 0,0 13.86138,-0.91369 13.86138,-5.9406 0,-5.02691 -13.86139,-5.94059 -13.86139,-5.94059 l -51.48514,0 c 0,0 -31.55582,83.73197 -49.50495,119.80198 z"
       id="path3019"
       inkscape:connector-curvature="0"
       sodipodi:nodetypes="sscccsccs" />
    <path
       style="fill:#ff0000;stroke:#000000;stroke-width:1px;stroke-linecap:butt;stroke-linejoin:miter;stroke-opacity:1"
       d="m 265.84157,488.00575 c 0,0 -26.65494,-0.0988 -36.1386,3.96039 -8.19767,3.50873 -12.26558,7.07587 -20.79208,14.35644 -2.98292,2.54704 -6.91231,11.40453 -3.9604,14.35644 2.95191,2.95191 11.88119,-3.9604 11.88119,-3.9604 0,0 12.29072,-10.9462 19.80198,-13.86139 7.13643,-2.76972 22.77228,-2.97029 22.77228,-2.97029 z"
       id="path3021"
       inkscape:connector-curvature="0"
       sodipodi:nodetypes="cssscscc" />
  </g>
</svg>
